ModelForces
version=1
nRows=4
nColumns=157
inDegrees=no

This file contains the forces exerted on a model during a simulation.

A force is a generalized force, meaning that it can be either a force (N) or a torque (Nm).

Units are S.I. units (second, meters, Newtons, ...)
Angles are in degrees.

endheader
time	glut_med1_r	glut_med2_r	glut_med3_r	glut_min1_r	glut_min2_r	glut_min3_r	semimem_r	semiten_r	bifemlh_r	bifemsh_r	sar_r	add_long_r	add_brev_r	add_mag1_r	add_mag2_r	add_mag3_r	tfl_r	pect_r	grac_r	glut_max1_r	glut_max2_r	glut_max3_r	iliacus_r	psoas_r	quad_fem_r	gem_r	peri_r	rect_fem_r	vas_med_r	vas_int_r	vas_lat_r	med_gas_r	lat_gas_r	soleus_r	tib_post_r	flex_dig_r	flex_hal_r	tib_ant_r	per_brev_r	per_long_r	per_tert_r	ext_dig_r	ext_hal_r	glut_med1_l	glut_med2_l	glut_med3_l	glut_min1_l	glut_min2_l	glut_min3_l	semimem_l	semiten_l	bifemlh_l	bifemsh_l	sar_l	add_long_l	add_brev_l	add_mag1_l	add_mag2_l	add_mag3_l	tfl_l	pect_l	grac_l	glut_max1_l	glut_max2_l	glut_max3_l	iliacus_l	psoas_l	quad_fem_l	gem_l	peri_l	rect_fem_l	vas_med_l	vas_int_l	vas_lat_l	med_gas_l	lat_gas_l	soleus_l	tib_post_l	flex_dig_l	flex_hal_l	tib_ant_l	per_brev_l	per_long_l	per_tert_l	ext_dig_l	ext_hal_l	ercspn_r	ercspn_l	intobl_r	intobl_l	extobl_r	extobl_l	femur_lat_meniscii_r.femur_lat_r.force.X	femur_lat_meniscii_r.femur_lat_r.force.Y	femur_lat_meniscii_r.femur_lat_r.force.Z	femur_lat_meniscii_r.femur_lat_r.torque.X	femur_lat_meniscii_r.femur_lat_r.torque.Y	femur_lat_meniscii_r.femur_lat_r.torque.Z	femur_lat_meniscii_r.meniscus_lat_r.force.X	femur_lat_meniscii_r.meniscus_lat_r.force.Y	femur_lat_meniscii_r.meniscus_lat_r.force.Z	femur_lat_meniscii_r.meniscus_lat_r.torque.X	femur_lat_meniscii_r.meniscus_lat_r.torque.Y	femur_lat_meniscii_r.meniscus_lat_r.torque.Z	femur_med_meniscii_r.femur_med_r.force.X	femur_med_meniscii_r.femur_med_r.force.Y	femur_med_meniscii_r.femur_med_r.force.Z	femur_med_meniscii_r.femur_med_r.torque.X	femur_med_meniscii_r.femur_med_r.torque.Y	femur_med_meniscii_r.femur_med_r.torque.Z	femur_med_meniscii_r.meniscus_med_r.force.X	femur_med_meniscii_r.meniscus_med_r.force.Y	femur_med_meniscii_r.meniscus_med_r.force.Z	femur_med_meniscii_r.meniscus_med_r.torque.X	femur_med_meniscii_r.meniscus_med_r.torque.Y	femur_med_meniscii_r.meniscus_med_r.torque.Z	femur_med_tibia_r.tibia_upper_r.force.X	femur_med_tibia_r.tibia_upper_r.force.Y	femur_med_tibia_r.tibia_upper_r.force.Z	femur_med_tibia_r.tibia_upper_r.torque.X	femur_med_tibia_r.tibia_upper_r.torque.Y	femur_med_tibia_r.tibia_upper_r.torque.Z	femur_med_tibia_r.femur_med_r.force.X	femur_med_tibia_r.femur_med_r.force.Y	femur_med_tibia_r.femur_med_r.force.Z	femur_med_tibia_r.femur_med_r.torque.X	femur_med_tibia_r.femur_med_r.torque.Y	femur_med_tibia_r.femur_med_r.torque.Z	femur_lat_tibia_r.tibia_upper_r.force.X	femur_lat_tibia_r.tibia_upper_r.force.Y	femur_lat_tibia_r.tibia_upper_r.force.Z	femur_lat_tibia_r.tibia_upper_r.torque.X	femur_lat_tibia_r.tibia_upper_r.torque.Y	femur_lat_tibia_r.tibia_upper_r.torque.Z	femur_lat_tibia_r.femur_lat_r.force.X	femur_lat_tibia_r.femur_lat_r.force.Y	femur_lat_tibia_r.femur_lat_r.force.Z	femur_lat_tibia_r.femur_lat_r.torque.X	femur_lat_tibia_r.femur_lat_r.torque.Y	femur_lat_tibia_r.femur_lat_r.torque.Z	aACL_R	pACL_R	aPCL_R	pPCL_R	aMCL_R	mMCL_R	pMCL_R	aLCL_R	mLCL_R	pLCL_R	ground_prescribedForce_fx	ground_prescribedForce_fy	ground_prescribedForce_fz	ground_prescribedForce_px	ground_prescribedForce_py	ground_prescribedForce_pz
      0.71880947	      7.54853597	      5.66615647	      6.06515305	      2.65911621	      3.17914160	      3.19298884	      4.22444476	      3.89481109	      6.07002297	      6.70493121	      1.50040355	      5.61368523	      4.14133977	      2.91913000	      2.45390011	      3.98776732	      4.43238673	      2.23886675	      1.49878744	      3.65633405	      5.55639991	      4.14771777	     22.64833545	     12.96767900	      3.62692582	      2.85443495	      4.09061277	     11.61231168	      9.65047179	     10.26350025	     13.83313611	      0.00000000	      1.58139852	     10.96476562	     13.95478729	      2.63782233	      3.32258547	     13.78248070	      4.02974984	      8.42356232	     10.80836029	      9.20558625	      1.61574076	      7.54853597	      5.66615647	      6.06515305	      2.65911621	      3.17914160	      3.19298884	      8.74610503	      4.08354808	      7.68361155	      7.21652162	      1.51984585	      5.61368523	      4.14133977	      2.91913000	      2.45390011	      3.98776732	      4.09721305	      2.23886675	      1.55880935	      3.65633405	      5.55639991	      4.14771777	     22.64833545	     12.96767900	      3.62692582	      2.85443495	      4.09061277	     10.66819900	      6.59316316	      7.56289613	      8.13215374	     13.95619606	      6.48018616	     31.09133808	     42.36115712	      2.60359916	      2.84955310	      8.45257218	      4.33451425	     12.44795749	      2.00601264	      5.35288712	      1.69951086	     25.00829099	     25.00829099	      9.00081747	      9.00081747	     26.80534338	     26.80534338	    102.06600383	     99.00925371	     31.96755323	    -15.57033908	      2.50613535	     41.97127171	   -102.06600383	    -99.00925371	    -31.96755323	      3.51466397	     -3.03897443	     -1.82961391	    101.95407781	     66.87977557	     18.35349051	     -5.99802891	     -2.31640692	     41.80312997	   -101.95407781	    -66.87977557	    -18.35349051	     -0.90279209	      1.92111347	     -2.02846269	    -21.05998161	    -36.07186645	      8.20321441	     -0.84302271	      0.38890295	     -0.45313092	     21.05998161	     36.07186645	     -8.20321441	      4.06337386	     -0.34957780	      8.89361098	      0.00000000	      0.00000000	      0.00000000	      0.00000000	      0.00000000	      0.00000000	      0.00000000	      0.00000000	      0.00000000	      0.00000000	      0.00000000	      0.00000000	     67.40255289	     49.22375848	     97.21448429	     59.85281210	      0.00000000	      0.00000000	      0.00000000	      3.18332693	      0.00000000	      0.00000000	     95.26279000	    -55.00000000	      0.00000000	      0.03000000	     -0.03000000	      0.00000000
      0.71943936	      7.54851161	      5.66613968	      6.06513486	      2.65910867	      3.17913344	      3.19297856	      4.22471750	      3.89498631	      6.06994948	      6.70543178	      1.50057011	      5.61366840	      4.14132813	      2.91912142	      2.45389273	      3.98775402	      4.43245174	      2.23886036	      1.49898979	      3.65632323	      5.55638342	      4.14770524	     22.64830502	     12.96764480	      3.62691531	      2.85443004	      4.09059299	     11.61252264	      9.65133156	     10.26413509	     13.83340153	      0.00000000	      1.58050875	     10.95744895	     13.95521878	      2.63608058	      3.31765532	     13.78994112	      4.02777210	      8.42199376	     10.80963148	      9.20907991	      1.61969262	      7.54851161	      5.66613968	      6.06513486	      2.65910867	      3.17913344	      3.19297856	      8.74606950	      4.08353503	      7.68358201	      7.21650069	      1.51984156	      5.61366840	      4.14132813	      2.91912142	      2.45389273	      3.98775402	      4.09720483	      2.23886036	      1.55880487	      3.65632323	      5.55638342	      4.14770524	     22.64830502	     12.96764480	      3.62691531	      2.85443004	      4.09059299	     10.66815881	      6.59314319	      7.56287277	      8.13212876	     13.95610290	      6.48014282	     31.09118823	     42.36109870	      2.60310940	      2.84931964	      8.45254195	      4.33449609	     12.44791261	      2.00600733	      5.35311598	      1.69957410	     25.00821989	     25.00821989	      9.00078960	      9.00078960	     26.80531835	     26.80531835	    102.63831156	     99.55216225	     32.14097313	    -15.65493259	      2.52014635	     42.20670103	   -102.63831156	    -99.55216225	    -32.14097313	      3.53385834	     -3.05590028	     -1.84009321	    102.58918926	     67.30908125	     18.47441892	     -6.03772975	     -2.33097040	     42.06355895	   -102.58918926	    -67.30908125	    -18.47441892	     -0.90859032	      1.93316083	     -2.04099886	    -21.13478047	    -36.19961065	      8.23056419	     -0.84596296	      0.39027776	     -0.45475314	     21.13478047	     36.19961065	     -8.23056419	      4.07706228	     -0.35082940	      8.92520406	      0.00000000	      0.00000000	      0.00000000	      0.00000000	      0.00000000	      0.00000000	      0.00000000	      0.00000000	      0.00000000	      0.00000000	      0.00000000	      0.00000000	     67.32537916	     49.14191965	     97.11794397	     59.58118367	      0.00000000	      0.00000000	      0.00000000	      2.90602574	      0.00000000	      0.00000000	     95.26279000	    -55.00000000	      0.00000000	      0.03000000	     -0.03000000	      0.00000000
      0.72006924	      7.54848745	      5.66612303	      6.06511682	      2.65910119	      3.17912535	      3.19296836	      4.22501250	      3.89517737	      6.06987317	      6.70619614	      1.50090406	      5.61365172	      4.14131659	      2.91911290	      2.45388540	      3.98774082	      4.43251938	      2.23885402	      1.49924026	      3.65631250	      5.55636706	      4.14769280	     22.64827484	     12.96761087	      3.62690489	      2.85442516	      4.09057337	     11.61274321	      9.65223331	     10.26483199	     13.83365373	      0.00000000	      1.57940962	     10.94833399	     13.95567021	      2.63448399	      3.31263357	     13.79842335	      4.02551416	      8.42000975	     10.81102886	      9.21230291	      1.62381602	      7.54848745	      5.66612303	      6.06511682	      2.65910119	      3.17912535	      3.19296836	      8.74603426	      4.08352209	      7.68355272	      7.21647994	      1.51983730	      5.61365172	      4.14131659	      2.91911290	      2.45388540	      3.98774082	      4.09719667	      2.23885402	      1.55880043	      3.65631250	      5.55636706	      4.14769280	     22.64827484	     12.96761087	      3.62690489	      2.85442516	      4.09057337	     10.66811895	      6.59312338	      7.56284961	      8.13210398	     13.95601050	      6.48009983	     31.09103959	     42.36104075	      2.60261915	      2.84908613	      8.45251196	      4.33447807	     12.44786810	      2.00600207	      5.35334521	      1.69963742	     25.00814937	     25.00814937	      9.00076196	      9.00076196	     26.80529352	     26.80529352	    102.42622357	     99.34716447	     32.07598902	    -15.62318386	      2.51494237	     42.11945917	   -102.42622357	    -99.34716447	    -32.07598902	      3.52659810	     -3.04958916	     -1.83626668	    102.44928889	     67.22474646	     18.45272182	     -6.03074199	     -2.32784577	     42.00628377	   -102.44928889	    -67.22474646	    -18.45272182	     -0.90743828	      1.93055663	     -2.03823444	    -21.13122599	    -36.19541066	      8.22950717	     -0.84588048	      0.39022584	     -0.45466875	     21.13122599	     36.19541066	     -8.22950717	      4.07656166	     -0.35077925	      8.92371048	      0.00000000	      0.00000000	      0.00000000	      0.00000000	      0.00000000	      0.00000000	      0.00000000	      0.00000000	      0.00000000	      0.00000000	      0.00000000	      0.00000000	     67.35117782	     49.17124105	     97.15605404	     59.66001430	      0.00000000	      0.00000000	      0.00000000	      2.97497504	      0.00000000	      0.00000000	     95.26279000	    -55.00000000	      0.00000000	      0.03000000	     -0.03000000	      0.00000000
      0.72321867	      7.54836956	      5.66604179	      6.06502878	      2.65906468	      3.17908586	      3.19291860	      4.22695153	      3.89633745	      6.06971645	      6.70547705	      1.49997596	      5.61357029	      4.14126024	      2.91907136	      2.45384964	      3.98767644	      4.43269450	      2.23882309	      1.49926092	      3.65626012	      5.55628722	      4.14763211	     22.64812756	     12.96744530	      3.62685401	      2.85440136	      4.09047763	     11.61477481	      9.65877801	     10.26977490	     13.83825270	      0.00000000	      1.57574691	     10.92371347	     13.95793402	      2.62847979	      3.28708091	     13.83196945	      4.01749903	      8.41284983	     10.81789706	      9.22001328	      1.64425595	      7.54836956	      5.66604179	      6.06502878	      2.65906468	      3.17908586	      3.19291860	      8.74586228	      4.08345892	      7.68340974	      7.21637864	      1.51981653	      5.61357029	      4.14126024	      2.91907136	      2.45384964	      3.98767644	      4.09715687	      2.23882309	      1.55877876	      3.65626012	      5.55628722	      4.14763211	     22.64812756	     12.96744530	      3.62685401	      2.85440136	      4.09047763	     10.66792440	      6.59302670	      7.56273657	      8.13198305	     13.95555942	      6.47988997	     31.09031417	     42.36075794	      2.60016043	      2.84791789	      8.45236562	      4.33439016	     12.44765086	      2.00597638	      5.35449685	      1.69995523	     25.00780523	     25.00780523	      9.00062707	      9.00062707	     26.80517235	     26.80517235	    101.83816806	     98.77019378	     31.89562009	    -15.53485424	      2.50048916	     41.87759897	   -101.83816806	    -98.77019378	    -31.89562009	      3.50620612	     -3.03204646	     -1.82578300	    102.15188946	     67.05646470	     18.41270200	     -6.01808448	     -2.32130687	     41.88462266	   -102.15188946	    -67.05646470	    -18.41270200	     -0.90512570	      1.92508729	     -2.03234650	    -21.13983593	    -36.21710988	      8.23365001	     -0.84643410	      0.39043499	     -0.45482575	     21.13983593	     36.21710988	     -8.23365001	      4.07873311	     -0.35095821	      8.92737503	      0.00000000	      0.00000000	      0.00000000	      0.00000000	      0.00000000	      0.00000000	      0.00000000	      0.00000000	      0.00000000	      0.00000000	      0.00000000	      0.00000000	     67.42169460	     49.25315016	     97.26897896	     59.86002939	      0.00000000	      0.00000000	      0.00000000	      3.12016271	      0.00000000	      0.00000000	     95.26279000	    -55.00000000	      0.00000000	      0.03000000	     -0.03000000	      0.00000000
